<svg xmlns="http://www.w3.org/2000/svg" width="600" height="600" viewBox="0 0 600 600" font-family="Helvetica"><rect width="600" height="600" fill="#0d0d0f"/><circle cx="300" cy="300" r="259" fill="#11150f" stroke="#444"/><circle cx="300" cy="300" r="258" fill="none" stroke="#C9A227" stroke-width="2" opacity="0.5"/><rect x="297.4" y="528.4" width="5.2" height="5.2" rx="1" fill="#e6194b"/><rect x="321.5" y="527.1" width="5.2" height="5.2" rx="1" fill="#e6194b"/><rect x="345.4" y="523.3" width="5.2" height="5.2" rx="1" fill="#e6194b"/><rect x="368.8" y="517.1" width="5.2" height="5.2" rx="1" fill="#e6194b"/><rect x="391.4" y="508.4" width="5.2" height="5.2" rx="1" fill="#e6194b"/><rect x="412.9" y="497.4" width="5.2" height="5.2" rx="1" fill="#e6194b"/><rect x="433.2" y="484.3" width="5.2" height="5.2" rx="1" fill="#e6194b"/><rect x="452.0" y="469.1" width="5.2" height="5.2" rx="1" fill="#e6194b"/><rect x="469.1" y="452.0" width="5.2" height="5.2" rx="1" fill="#e6194b"/><rect x="484.3" y="433.2" width="5.2" height="5.2" rx="1" fill="#e6194b"/><rect x="497.4" y="412.9" width="5.2" height="5.2" rx="1" fill="#e6194b"/><rect x="508.4" y="391.4" width="5.2" height="5.2" rx="1" fill="#e6194b"/><rect x="517.1" y="368.8" width="5.2" height="5.2" rx="1" fill="#3cb44b"/><rect x="523.3" y="345.4" width="5.2" height="5.2" rx="1" fill="#3cb44b"/><rect x="527.1" y="321.5" width="5.2" height="5.2" rx="1" fill="#3cb44b"/><rect x="528.4" y="297.4" width="5.2" height="5.2" rx="1" fill="#3cb44b"/><rect x="527.1" y="273.2" width="5.2" height="5.2" rx="1" fill="#3cb44b"/><rect x="523.3" y="249.4" width="5.2" height="5.2" rx="1" fill="#3cb44b"/><rect x="517.1" y="226.0" width="5.2" height="5.2" rx="1" fill="#3cb44b"/><rect x="508.4" y="203.4" width="5.2" height="5.2" rx="1" fill="#3cb44b"/><rect x="497.4" y="181.9" width="5.2" height="5.2" rx="1" fill="#3cb44b"/><rect x="484.3" y="161.6" width="5.2" height="5.2" rx="1" fill="#3cb44b"/><rect x="469.1" y="142.8" width="5.2" height="5.2" rx="1" fill="#3cb44b"/><rect x="452.0" y="125.7" width="5.2" height="5.2" rx="1" fill="#3cb44b"/><rect x="433.2" y="110.5" width="5.2" height="5.2" rx="1" fill="#ffe119"/><rect x="412.9" y="97.4" width="5.2" height="5.2" rx="1" fill="#ffe119"/><rect x="391.4" y="86.4" width="5.2" height="5.2" rx="1" fill="#ffe119"/><rect x="368.8" y="77.7" width="5.2" height="5.2" rx="1" fill="#ffe119"/><rect x="345.4" y="71.5" width="5.2" height="5.2" rx="1" fill="#ffe119"/><rect x="321.5" y="67.7" width="5.2" height="5.2" rx="1" fill="#ffe119"/><rect x="297.4" y="66.4" width="5.2" height="5.2" rx="1" fill="#ffe119"/><rect x="273.2" y="67.7" width="5.2" height="5.2" rx="1" fill="#ffe119"/><rect x="249.4" y="71.5" width="5.2" height="5.2" rx="1" fill="#ffe119"/><rect x="226.0" y="77.7" width="5.2" height="5.2" rx="1" fill="#ffe119"/><rect x="203.4" y="86.4" width="5.2" height="5.2" rx="1" fill="#ffe119"/><rect x="181.9" y="97.4" width="5.2" height="5.2" rx="1" fill="#ffe119"/><rect x="161.6" y="110.5" width="5.2" height="5.2" rx="1" fill="#4363d8"/><rect x="142.8" y="125.7" width="5.2" height="5.2" rx="1" fill="#4363d8"/><rect x="125.7" y="142.8" width="5.2" height="5.2" rx="1" fill="#4363d8"/><rect x="110.5" y="161.6" width="5.2" height="5.2" rx="1" fill="#4363d8"/><rect x="97.4" y="181.9" width="5.2" height="5.2" rx="1" fill="#4363d8"/><rect x="86.4" y="203.4" width="5.2" height="5.2" rx="1" fill="#4363d8"/><rect x="77.7" y="226.0" width="5.2" height="5.2" rx="1" fill="#4363d8"/><rect x="71.5" y="249.4" width="5.2" height="5.2" rx="1" fill="#4363d8"/><rect x="67.7" y="273.2" width="5.2" height="5.2" rx="1" fill="#4363d8"/><rect x="66.4" y="297.4" width="5.2" height="5.2" rx="1" fill="#4363d8"/><rect x="67.7" y="321.5" width="5.2" height="5.2" rx="1" fill="#4363d8"/><rect x="71.5" y="345.4" width="5.2" height="5.2" rx="1" fill="#4363d8"/><rect x="77.7" y="368.8" width="5.2" height="5.2" rx="1" fill="#f58231"/><rect x="86.4" y="391.4" width="5.2" height="5.2" rx="1" fill="#f58231"/><rect x="97.4" y="412.9" width="5.2" height="5.2" rx="1" fill="#f58231"/><rect x="110.5" y="433.2" width="5.2" height="5.2" rx="1" fill="#f58231"/><rect x="125.7" y="452.0" width="5.2" height="5.2" rx="1" fill="#f58231"/><rect x="142.8" y="469.1" width="5.2" height="5.2" rx="1" fill="#f58231"/><rect x="161.6" y="484.3" width="5.2" height="5.2" rx="1" fill="#f58231"/><rect x="181.9" y="497.4" width="5.2" height="5.2" rx="1" fill="#f58231"/><rect x="203.4" y="508.4" width="5.2" height="5.2" rx="1" fill="#f58231"/><rect x="226.0" y="517.1" width="5.2" height="5.2" rx="1" fill="#f58231"/><rect x="249.4" y="523.3" width="5.2" height="5.2" rx="1" fill="#f58231"/><rect x="273.2" y="527.1" width="5.2" height="5.2" rx="1" fill="#f58231"/><rect x="297.4" y="500.4" width="5.2" height="5.2" rx="1" fill="#911eb4"/><rect x="318.6" y="499.3" width="5.2" height="5.2" rx="1" fill="#911eb4"/><rect x="339.6" y="496.0" width="5.2" height="5.2" rx="1" fill="#911eb4"/><rect x="360.1" y="490.5" width="5.2" height="5.2" rx="1" fill="#911eb4"/><rect x="380.0" y="482.8" width="5.2" height="5.2" rx="1" fill="#911eb4"/><rect x="398.9" y="473.2" width="5.2" height="5.2" rx="1" fill="#911eb4"/><rect x="416.7" y="461.6" width="5.2" height="5.2" rx="1" fill="#911eb4"/><rect x="433.2" y="448.3" width="5.2" height="5.2" rx="1" fill="#911eb4"/><rect x="448.3" y="433.2" width="5.2" height="5.2" rx="1" fill="#911eb4"/><rect x="461.6" y="416.7" width="5.2" height="5.2" rx="1" fill="#911eb4"/><rect x="473.2" y="398.9" width="5.2" height="5.2" rx="1" fill="#911eb4"/><rect x="482.8" y="380.0" width="5.2" height="5.2" rx="1" fill="#911eb4"/><rect x="490.5" y="360.1" width="5.2" height="5.2" rx="1" fill="#46f0f0"/><rect x="496.0" y="339.6" width="5.2" height="5.2" rx="1" fill="#46f0f0"/><rect x="499.3" y="318.6" width="5.2" height="5.2" rx="1" fill="#46f0f0"/><rect x="500.4" y="297.4" width="5.2" height="5.2" rx="1" fill="#46f0f0"/><rect x="499.3" y="276.2" width="5.2" height="5.2" rx="1" fill="#46f0f0"/><rect x="496.0" y="255.2" width="5.2" height="5.2" rx="1" fill="#46f0f0"/><rect x="490.5" y="234.7" width="5.2" height="5.2" rx="1" fill="#46f0f0"/><rect x="482.8" y="214.8" width="5.2" height="5.2" rx="1" fill="#46f0f0"/><rect x="473.2" y="195.9" width="5.2" height="5.2" rx="1" fill="#46f0f0"/><rect x="461.6" y="178.1" width="5.2" height="5.2" rx="1" fill="#46f0f0"/><rect x="448.3" y="161.6" width="5.2" height="5.2" rx="1" fill="#46f0f0"/><rect x="433.2" y="146.5" width="5.2" height="5.2" rx="1" fill="#46f0f0"/><rect x="416.7" y="133.2" width="5.2" height="5.2" rx="1" fill="#f032e6"/><rect x="398.9" y="121.6" width="5.2" height="5.2" rx="1" fill="#f032e6"/><rect x="380.0" y="112.0" width="5.2" height="5.2" rx="1" fill="#f032e6"/><rect x="360.1" y="104.3" width="5.2" height="5.2" rx="1" fill="#f032e6"/><rect x="339.6" y="98.8" width="5.2" height="5.2" rx="1" fill="#f032e6"/><rect x="318.6" y="95.5" width="5.2" height="5.2" rx="1" fill="#f032e6"/><rect x="297.4" y="94.4" width="5.2" height="5.2" rx="1" fill="#f032e6"/><rect x="276.2" y="95.5" width="5.2" height="5.2" rx="1" fill="#f032e6"/><rect x="255.2" y="98.8" width="5.2" height="5.2" rx="1" fill="#f032e6"/><rect x="234.7" y="104.3" width="5.2" height="5.2" rx="1" fill="#f032e6"/><rect x="214.8" y="112.0" width="5.2" height="5.2" rx="1" fill="#f032e6"/><rect x="195.9" y="121.6" width="5.2" height="5.2" rx="1" fill="#f032e6"/><rect x="178.1" y="133.2" width="5.2" height="5.2" rx="1" fill="#bcf60c"/><rect x="161.6" y="146.5" width="5.2" height="5.2" rx="1" fill="#bcf60c"/><rect x="146.5" y="161.6" width="5.2" height="5.2" rx="1" fill="#bcf60c"/><rect x="133.2" y="178.1" width="5.2" height="5.2" rx="1" fill="#bcf60c"/><rect x="121.6" y="195.9" width="5.2" height="5.2" rx="1" fill="#bcf60c"/><rect x="112.0" y="214.8" width="5.2" height="5.2" rx="1" fill="#bcf60c"/><rect x="104.3" y="234.7" width="5.2" height="5.2" rx="1" fill="#bcf60c"/><rect x="98.8" y="255.2" width="5.2" height="5.2" rx="1" fill="#bcf60c"/><rect x="95.5" y="276.2" width="5.2" height="5.2" rx="1" fill="#bcf60c"/><rect x="94.4" y="297.4" width="5.2" height="5.2" rx="1" fill="#bcf60c"/><rect x="95.5" y="318.6" width="5.2" height="5.2" rx="1" fill="#bcf60c"/><rect x="98.8" y="339.6" width="5.2" height="5.2" rx="1" fill="#bcf60c"/><rect x="104.3" y="360.1" width="5.2" height="5.2" rx="1" fill="#fabebe"/><rect x="112.0" y="380.0" width="5.2" height="5.2" rx="1" fill="#fabebe"/><rect x="121.6" y="398.9" width="5.2" height="5.2" rx="1" fill="#fabebe"/><rect x="133.2" y="416.7" width="5.2" height="5.2" rx="1" fill="#fabebe"/><rect x="146.5" y="433.2" width="5.2" height="5.2" rx="1" fill="#fabebe"/><rect x="161.6" y="448.3" width="5.2" height="5.2" rx="1" fill="#fabebe"/><rect x="178.1" y="461.6" width="5.2" height="5.2" rx="1" fill="#fabebe"/><rect x="195.9" y="473.2" width="5.2" height="5.2" rx="1" fill="#fabebe"/><rect x="214.8" y="482.8" width="5.2" height="5.2" rx="1" fill="#fabebe"/><rect x="234.7" y="490.5" width="5.2" height="5.2" rx="1" fill="#fabebe"/><rect x="255.2" y="496.0" width="5.2" height="5.2" rx="1" fill="#fabebe"/><rect x="276.2" y="499.3" width="5.2" height="5.2" rx="1" fill="#fabebe"/><rect x="306.9" y="479.1" width="5.2" height="5.2" rx="1" fill="#008080"/><line x1="309.5" y1="481.7" x2="313.2" y2="551.7" stroke="#008080" stroke-width="1.2" opacity="0.6"/><rect x="344.5" y="473.2" width="5.2" height="5.2" rx="1" fill="#008080"/><line x1="347.1" y1="475.8" x2="365.2" y2="543.4" stroke="#008080" stroke-width="1.2" opacity="0.6"/><rect x="380.0" y="459.6" width="5.2" height="5.2" rx="1" fill="#008080"/><line x1="382.6" y1="462.2" x2="414.4" y2="524.5" stroke="#008080" stroke-width="1.2" opacity="0.6"/><rect x="426.1" y="426.1" width="5.2" height="5.2" rx="1" fill="#008080"/><line x1="428.7" y1="428.7" x2="478.2" y2="478.2" stroke="#008080" stroke-width="1.2" opacity="0.6"/><rect x="459.6" y="380.0" width="5.2" height="5.2" rx="1" fill="#008080"/><line x1="462.2" y1="382.6" x2="524.5" y2="414.4" stroke="#008080" stroke-width="1.2" opacity="0.6"/><rect x="473.2" y="344.5" width="5.2" height="5.2" rx="1" fill="#008080"/><line x1="475.8" y1="347.1" x2="543.4" y2="365.2" stroke="#008080" stroke-width="1.2" opacity="0.6"/><rect x="479.1" y="306.9" width="5.2" height="5.2" rx="1" fill="#008080"/><line x1="481.7" y1="309.5" x2="551.7" y2="313.2" stroke="#008080" stroke-width="1.2" opacity="0.6"/><rect x="473.2" y="250.3" width="5.2" height="5.2" rx="1" fill="#008080"/><line x1="475.8" y1="252.9" x2="543.4" y2="234.8" stroke="#008080" stroke-width="1.2" opacity="0.6"/><rect x="450.0" y="198.3" width="5.2" height="5.2" rx="1" fill="#008080"/><line x1="452.6" y1="200.9" x2="511.3" y2="162.8" stroke="#008080" stroke-width="1.2" opacity="0.6"/><rect x="426.1" y="168.7" width="5.2" height="5.2" rx="1" fill="#008080"/><line x1="428.7" y1="171.3" x2="478.2" y2="121.8" stroke="#008080" stroke-width="1.2" opacity="0.6"/><rect x="396.5" y="144.8" width="5.2" height="5.2" rx="1" fill="#008080"/><line x1="399.1" y1="147.4" x2="437.2" y2="88.7" stroke="#008080" stroke-width="1.2" opacity="0.6"/><rect x="344.5" y="121.6" width="5.2" height="5.2" rx="1" fill="#008080"/><line x1="347.1" y1="124.2" x2="365.2" y2="56.6" stroke="#008080" stroke-width="1.2" opacity="0.6"/><rect x="287.9" y="115.7" width="5.2" height="5.2" rx="1" fill="#e6beff"/><line x1="290.5" y1="118.3" x2="286.8" y2="48.3" stroke="#e6beff" stroke-width="1.2" opacity="0.6"/><rect x="250.3" y="121.6" width="5.2" height="5.2" rx="1" fill="#e6beff"/><line x1="252.9" y1="124.2" x2="234.8" y2="56.6" stroke="#e6beff" stroke-width="1.2" opacity="0.6"/><rect x="214.8" y="135.2" width="5.2" height="5.2" rx="1" fill="#e6beff"/><line x1="217.4" y1="137.8" x2="185.6" y2="75.5" stroke="#e6beff" stroke-width="1.2" opacity="0.6"/><rect x="168.7" y="168.7" width="5.2" height="5.2" rx="1" fill="#e6beff"/><line x1="171.3" y1="171.3" x2="121.8" y2="121.8" stroke="#e6beff" stroke-width="1.2" opacity="0.6"/><rect x="135.2" y="214.8" width="5.2" height="5.2" rx="1" fill="#e6beff"/><line x1="137.8" y1="217.4" x2="75.5" y2="185.6" stroke="#e6beff" stroke-width="1.2" opacity="0.6"/><rect x="121.6" y="250.3" width="5.2" height="5.2" rx="1" fill="#e6beff"/><line x1="124.2" y1="252.9" x2="56.6" y2="234.8" stroke="#e6beff" stroke-width="1.2" opacity="0.6"/><rect x="115.7" y="287.9" width="5.2" height="5.2" rx="1" fill="#e6beff"/><line x1="118.3" y1="290.5" x2="48.3" y2="286.8" stroke="#e6beff" stroke-width="1.2" opacity="0.6"/><rect x="121.6" y="344.5" width="5.2" height="5.2" rx="1" fill="#e6beff"/><line x1="124.2" y1="347.1" x2="56.6" y2="365.2" stroke="#e6beff" stroke-width="1.2" opacity="0.6"/><rect x="144.8" y="396.5" width="5.2" height="5.2" rx="1" fill="#e6beff"/><line x1="147.4" y1="399.1" x2="88.7" y2="437.2" stroke="#e6beff" stroke-width="1.2" opacity="0.6"/><rect x="168.7" y="426.1" width="5.2" height="5.2" rx="1" fill="#e6beff"/><line x1="171.3" y1="428.7" x2="121.8" y2="478.2" stroke="#e6beff" stroke-width="1.2" opacity="0.6"/><rect x="198.3" y="450.0" width="5.2" height="5.2" rx="1" fill="#e6beff"/><line x1="200.9" y1="452.6" x2="162.8" y2="511.3" stroke="#e6beff" stroke-width="1.2" opacity="0.6"/><rect x="250.3" y="473.2" width="5.2" height="5.2" rx="1" fill="#e6beff"/><line x1="252.9" y1="475.8" x2="234.8" y2="543.4" stroke="#e6beff" stroke-width="1.2" opacity="0.6"/><rect x="297.4" y="332.4" width="5.2" height="5.2" rx="1" fill="#fffac8"/><rect x="314.9" y="327.7" width="5.2" height="5.2" rx="1" fill="#fffac8"/><rect x="327.7" y="314.9" width="5.2" height="5.2" rx="1" fill="#fffac8"/><rect x="332.4" y="297.4" width="5.2" height="5.2" rx="1" fill="#fffac8"/><rect x="327.7" y="279.9" width="5.2" height="5.2" rx="1" fill="#fffac8"/><rect x="314.9" y="267.1" width="5.2" height="5.2" rx="1" fill="#fffac8"/><rect x="297.4" y="262.4" width="5.2" height="5.2" rx="1" fill="#fffac8"/><rect x="279.9" y="267.1" width="5.2" height="5.2" rx="1" fill="#fffac8"/><rect x="267.1" y="279.9" width="5.2" height="5.2" rx="1" fill="#fffac8"/><rect x="262.4" y="297.4" width="5.2" height="5.2" rx="1" fill="#fffac8"/><rect x="267.1" y="314.9" width="5.2" height="5.2" rx="1" fill="#fffac8"/><rect x="279.9" y="327.7" width="5.2" height="5.2" rx="1" fill="#fffac8"/><circle cx="300.0" cy="524.0" r="6" fill="none" stroke="#fff" stroke-width="1.5"/><circle cx="471.6" cy="156.0" r="6" fill="none" stroke="#fff" stroke-width="1.5"/><circle cx="106.0" cy="188.0" r="6" fill="none" stroke="#fff" stroke-width="1.5"/><text x="300" y="24" fill="#ddd" font-size="13" text-anchor="middle">Arc clusters — 13 scan rows, each a contiguous arc (one HIGH bus)</text></svg>