<svg xmlns="http://www.w3.org/2000/svg" width="600" height="640" viewBox="0 0 600 640" font-family="Helvetica"><rect width="600" height="640" fill="#0d0d0f"/><circle cx="300" cy="300" r="259" fill="#11150f" stroke="#444"/><rect x="297.4" y="528.4" width="5.2" height="5.2" rx="1" fill="#e6194b"/><rect x="321.5" y="527.1" width="5.2" height="5.2" rx="1" fill="#e6194b"/><rect x="345.4" y="523.3" width="5.2" height="5.2" rx="1" fill="#e6194b"/><rect x="368.8" y="517.1" width="5.2" height="5.2" rx="1" fill="#e6194b"/><rect x="391.4" y="508.4" width="5.2" height="5.2" rx="1" fill="#e6194b"/><rect x="412.9" y="497.4" width="5.2" height="5.2" rx="1" fill="#e6194b"/><rect x="433.2" y="484.3" width="5.2" height="5.2" rx="1" fill="#e6194b"/><rect x="452.0" y="469.1" width="5.2" height="5.2" rx="1" fill="#e6194b"/><rect x="469.1" y="452.0" width="5.2" height="5.2" rx="1" fill="#e6194b"/><rect x="484.3" y="433.2" width="5.2" height="5.2" rx="1" fill="#e6194b"/><rect x="497.4" y="412.9" width="5.2" height="5.2" rx="1" fill="#e6194b"/><rect x="508.4" y="391.4" width="5.2" height="5.2" rx="1" fill="#e6194b"/><rect x="517.1" y="368.8" width="5.2" height="5.2" rx="1" fill="#e6194b"/><rect x="523.3" y="345.4" width="5.2" height="5.2" rx="1" fill="#e6194b"/><rect x="527.1" y="321.5" width="5.2" height="5.2" rx="1" fill="#e6194b"/><rect x="528.4" y="297.4" width="5.2" height="5.2" rx="1" fill="#e6194b"/><rect x="527.1" y="273.2" width="5.2" height="5.2" rx="1" fill="#e6194b"/><rect x="523.3" y="249.4" width="5.2" height="5.2" rx="1" fill="#e6194b"/><rect x="517.1" y="226.0" width="5.2" height="5.2" rx="1" fill="#3cb44b"/><rect x="508.4" y="203.4" width="5.2" height="5.2" rx="1" fill="#3cb44b"/><rect x="497.4" y="181.9" width="5.2" height="5.2" rx="1" fill="#3cb44b"/><rect x="484.3" y="161.6" width="5.2" height="5.2" rx="1" fill="#3cb44b"/><rect x="469.1" y="142.8" width="5.2" height="5.2" rx="1" fill="#3cb44b"/><rect x="452.0" y="125.7" width="5.2" height="5.2" rx="1" fill="#3cb44b"/><rect x="433.2" y="110.5" width="5.2" height="5.2" rx="1" fill="#3cb44b"/><rect x="412.9" y="97.4" width="5.2" height="5.2" rx="1" fill="#3cb44b"/><rect x="391.4" y="86.4" width="5.2" height="5.2" rx="1" fill="#3cb44b"/><rect x="368.8" y="77.7" width="5.2" height="5.2" rx="1" fill="#3cb44b"/><rect x="345.4" y="71.5" width="5.2" height="5.2" rx="1" fill="#3cb44b"/><rect x="321.5" y="67.7" width="5.2" height="5.2" rx="1" fill="#3cb44b"/><rect x="297.4" y="66.4" width="5.2" height="5.2" rx="1" fill="#3cb44b"/><rect x="273.2" y="67.7" width="5.2" height="5.2" rx="1" fill="#3cb44b"/><rect x="249.4" y="71.5" width="5.2" height="5.2" rx="1" fill="#3cb44b"/><rect x="226.0" y="77.7" width="5.2" height="5.2" rx="1" fill="#3cb44b"/><rect x="203.4" y="86.4" width="5.2" height="5.2" rx="1" fill="#3cb44b"/><rect x="181.9" y="97.4" width="5.2" height="5.2" rx="1" fill="#3cb44b"/><rect x="161.6" y="110.5" width="5.2" height="5.2" rx="1" fill="#ffe119"/><rect x="142.8" y="125.7" width="5.2" height="5.2" rx="1" fill="#ffe119"/><rect x="125.7" y="142.8" width="5.2" height="5.2" rx="1" fill="#ffe119"/><rect x="110.5" y="161.6" width="5.2" height="5.2" rx="1" fill="#ffe119"/><rect x="97.4" y="181.9" width="5.2" height="5.2" rx="1" fill="#ffe119"/><rect x="86.4" y="203.4" width="5.2" height="5.2" rx="1" fill="#ffe119"/><rect x="77.7" y="226.0" width="5.2" height="5.2" rx="1" fill="#ffe119"/><rect x="71.5" y="249.4" width="5.2" height="5.2" rx="1" fill="#ffe119"/><rect x="67.7" y="273.2" width="5.2" height="5.2" rx="1" fill="#ffe119"/><rect x="66.4" y="297.4" width="5.2" height="5.2" rx="1" fill="#ffe119"/><rect x="67.7" y="321.5" width="5.2" height="5.2" rx="1" fill="#ffe119"/><rect x="71.5" y="345.4" width="5.2" height="5.2" rx="1" fill="#ffe119"/><rect x="77.7" y="368.8" width="5.2" height="5.2" rx="1" fill="#ffe119"/><rect x="86.4" y="391.4" width="5.2" height="5.2" rx="1" fill="#ffe119"/><rect x="97.4" y="412.9" width="5.2" height="5.2" rx="1" fill="#ffe119"/><rect x="110.5" y="433.2" width="5.2" height="5.2" rx="1" fill="#ffe119"/><rect x="125.7" y="452.0" width="5.2" height="5.2" rx="1" fill="#ffe119"/><rect x="142.8" y="469.1" width="5.2" height="5.2" rx="1" fill="#ffe119"/><rect x="161.6" y="484.3" width="5.2" height="5.2" rx="1" fill="#4363d8"/><rect x="181.9" y="497.4" width="5.2" height="5.2" rx="1" fill="#4363d8"/><rect x="203.4" y="508.4" width="5.2" height="5.2" rx="1" fill="#4363d8"/><rect x="226.0" y="517.1" width="5.2" height="5.2" rx="1" fill="#4363d8"/><rect x="249.4" y="523.3" width="5.2" height="5.2" rx="1" fill="#4363d8"/><rect x="273.2" y="527.1" width="5.2" height="5.2" rx="1" fill="#4363d8"/><rect x="297.4" y="500.4" width="5.2" height="5.2" rx="1" fill="#4363d8"/><rect x="318.6" y="499.3" width="5.2" height="5.2" rx="1" fill="#4363d8"/><rect x="339.6" y="496.0" width="5.2" height="5.2" rx="1" fill="#4363d8"/><rect x="360.1" y="490.5" width="5.2" height="5.2" rx="1" fill="#4363d8"/><rect x="380.0" y="482.8" width="5.2" height="5.2" rx="1" fill="#4363d8"/><rect x="398.9" y="473.2" width="5.2" height="5.2" rx="1" fill="#4363d8"/><rect x="416.7" y="461.6" width="5.2" height="5.2" rx="1" fill="#4363d8"/><rect x="433.2" y="448.3" width="5.2" height="5.2" rx="1" fill="#4363d8"/><rect x="448.3" y="433.2" width="5.2" height="5.2" rx="1" fill="#4363d8"/><rect x="461.6" y="416.7" width="5.2" height="5.2" rx="1" fill="#4363d8"/><rect x="473.2" y="398.9" width="5.2" height="5.2" rx="1" fill="#4363d8"/><rect x="482.8" y="380.0" width="5.2" height="5.2" rx="1" fill="#4363d8"/><rect x="490.5" y="360.1" width="5.2" height="5.2" rx="1" fill="#f58231"/><rect x="496.0" y="339.6" width="5.2" height="5.2" rx="1" fill="#f58231"/><rect x="499.3" y="318.6" width="5.2" height="5.2" rx="1" fill="#f58231"/><rect x="500.4" y="297.4" width="5.2" height="5.2" rx="1" fill="#f58231"/><rect x="499.3" y="276.2" width="5.2" height="5.2" rx="1" fill="#f58231"/><rect x="496.0" y="255.2" width="5.2" height="5.2" rx="1" fill="#f58231"/><rect x="490.5" y="234.7" width="5.2" height="5.2" rx="1" fill="#f58231"/><rect x="482.8" y="214.8" width="5.2" height="5.2" rx="1" fill="#f58231"/><rect x="473.2" y="195.9" width="5.2" height="5.2" rx="1" fill="#f58231"/><rect x="461.6" y="178.1" width="5.2" height="5.2" rx="1" fill="#f58231"/><rect x="448.3" y="161.6" width="5.2" height="5.2" rx="1" fill="#f58231"/><rect x="433.2" y="146.5" width="5.2" height="5.2" rx="1" fill="#f58231"/><rect x="416.7" y="133.2" width="5.2" height="5.2" rx="1" fill="#f58231"/><rect x="398.9" y="121.6" width="5.2" height="5.2" rx="1" fill="#f58231"/><rect x="380.0" y="112.0" width="5.2" height="5.2" rx="1" fill="#f58231"/><rect x="360.1" y="104.3" width="5.2" height="5.2" rx="1" fill="#f58231"/><rect x="339.6" y="98.8" width="5.2" height="5.2" rx="1" fill="#f58231"/><rect x="318.6" y="95.5" width="5.2" height="5.2" rx="1" fill="#f58231"/><rect x="297.4" y="94.4" width="5.2" height="5.2" rx="1" fill="#911eb4"/><rect x="276.2" y="95.5" width="5.2" height="5.2" rx="1" fill="#911eb4"/><rect x="255.2" y="98.8" width="5.2" height="5.2" rx="1" fill="#911eb4"/><rect x="234.7" y="104.3" width="5.2" height="5.2" rx="1" fill="#911eb4"/><rect x="214.8" y="112.0" width="5.2" height="5.2" rx="1" fill="#911eb4"/><rect x="195.9" y="121.6" width="5.2" height="5.2" rx="1" fill="#911eb4"/><rect x="178.1" y="133.2" width="5.2" height="5.2" rx="1" fill="#911eb4"/><rect x="161.6" y="146.5" width="5.2" height="5.2" rx="1" fill="#911eb4"/><rect x="146.5" y="161.6" width="5.2" height="5.2" rx="1" fill="#911eb4"/><rect x="133.2" y="178.1" width="5.2" height="5.2" rx="1" fill="#911eb4"/><rect x="121.6" y="195.9" width="5.2" height="5.2" rx="1" fill="#911eb4"/><rect x="112.0" y="214.8" width="5.2" height="5.2" rx="1" fill="#911eb4"/><rect x="104.3" y="234.7" width="5.2" height="5.2" rx="1" fill="#911eb4"/><rect x="98.8" y="255.2" width="5.2" height="5.2" rx="1" fill="#911eb4"/><rect x="95.5" y="276.2" width="5.2" height="5.2" rx="1" fill="#911eb4"/><rect x="94.4" y="297.4" width="5.2" height="5.2" rx="1" fill="#911eb4"/><rect x="95.5" y="318.6" width="5.2" height="5.2" rx="1" fill="#911eb4"/><rect x="98.8" y="339.6" width="5.2" height="5.2" rx="1" fill="#911eb4"/><rect x="104.3" y="360.1" width="5.2" height="5.2" rx="1" fill="#46f0f0"/><rect x="112.0" y="380.0" width="5.2" height="5.2" rx="1" fill="#46f0f0"/><rect x="121.6" y="398.9" width="5.2" height="5.2" rx="1" fill="#46f0f0"/><rect x="133.2" y="416.7" width="5.2" height="5.2" rx="1" fill="#46f0f0"/><rect x="146.5" y="433.2" width="5.2" height="5.2" rx="1" fill="#46f0f0"/><rect x="161.6" y="448.3" width="5.2" height="5.2" rx="1" fill="#46f0f0"/><rect x="178.1" y="461.6" width="5.2" height="5.2" rx="1" fill="#46f0f0"/><rect x="195.9" y="473.2" width="5.2" height="5.2" rx="1" fill="#46f0f0"/><rect x="214.8" y="482.8" width="5.2" height="5.2" rx="1" fill="#46f0f0"/><rect x="234.7" y="490.5" width="5.2" height="5.2" rx="1" fill="#46f0f0"/><rect x="255.2" y="496.0" width="5.2" height="5.2" rx="1" fill="#46f0f0"/><rect x="276.2" y="499.3" width="5.2" height="5.2" rx="1" fill="#46f0f0"/><rect x="297.4" y="332.4" width="5.2" height="5.2" rx="1" fill="#46f0f0"/><rect x="314.9" y="327.7" width="5.2" height="5.2" rx="1" fill="#46f0f0"/><rect x="327.7" y="314.9" width="5.2" height="5.2" rx="1" fill="#46f0f0"/><rect x="332.4" y="297.4" width="5.2" height="5.2" rx="1" fill="#46f0f0"/><rect x="327.7" y="279.9" width="5.2" height="5.2" rx="1" fill="#46f0f0"/><rect x="314.9" y="267.1" width="5.2" height="5.2" rx="1" fill="#46f0f0"/><rect x="297.4" y="262.4" width="5.2" height="5.2" rx="1" fill="#f032e6"/><rect x="279.9" y="267.1" width="5.2" height="5.2" rx="1" fill="#f032e6"/><rect x="267.1" y="279.9" width="5.2" height="5.2" rx="1" fill="#f032e6"/><rect x="262.4" y="297.4" width="5.2" height="5.2" rx="1" fill="#f032e6"/><rect x="267.1" y="314.9" width="5.2" height="5.2" rx="1" fill="#f032e6"/><rect x="279.9" y="327.7" width="5.2" height="5.2" rx="1" fill="#f032e6"/><circle cx="300.0" cy="524.0" r="6" fill="none" stroke="#fff" stroke-width="1.5"/><circle cx="471.6" cy="156.0" r="6" fill="none" stroke="#fff" stroke-width="1.5"/><circle cx="106.0" cy="188.0" r="6" fill="none" stroke="#fff" stroke-width="1.5"/><text x="300" y="24" fill="#ddd" font-size="14" text-anchor="middle">IS31FL3743A matrix — 132 LEDs colored by SW scan line (8 of 11 used)</text><text x="300" y="624" fill="#999" font-size="11" text-anchor="middle">Each LED = one (SW,CS) cell · 18 CS columns × 11 SW rows = 198 max · positions unchanged from Charlieplex</text></svg>