<svg xmlns="http://www.w3.org/2000/svg" width="820" height="820" viewBox="0 0 820 820" font-family="Helvetica"><rect width="820" height="820" fill="#0b0d0a"/><circle cx="410" cy="410" r="170.5" fill="#0e140d" stroke="#1c3a1c" stroke-width="2"/><line x1="393.5" y1="388.0" x2="443.0" y2="388.0" stroke="#2f6fd1" stroke-width="2.6" stroke-linecap="round" opacity="0.9"/><line x1="393.5" y1="399.0" x2="443.0" y2="399.0" stroke="#2f6fd1" stroke-width="2.6" stroke-linecap="round" opacity="0.9"/><line x1="338.5" y1="388.0" x2="311.0" y2="333.0" stroke="#2f6fd1" stroke-width="2.0" stroke-linecap="round" opacity="0.9"/><line x1="338.5" y1="399.0" x2="305.5" y2="382.5" stroke="#2f6fd1" stroke-width="2.0" stroke-linecap="round" opacity="0.9"/><line x1="311.0" y1="333.0" x2="311.0" y2="333.0" stroke="#2f6fd1" stroke-width="2.0" stroke-linecap="round" opacity="0.9"/><line x1="454.0" y1="421.0" x2="366.0" y2="520.0" stroke="#d11414" stroke-width="1.4" stroke-linecap="round" opacity="0.8"/><line x1="460.1" y1="421.0" x2="373.7" y2="520.0" stroke="#d11414" stroke-width="1.4" stroke-linecap="round" opacity="0.8"/><line x1="466.1" y1="421.0" x2="381.4" y2="520.0" stroke="#d11414" stroke-width="1.4" stroke-linecap="round" opacity="0.8"/><line x1="472.1" y1="421.0" x2="389.1" y2="520.0" stroke="#d11414" stroke-width="1.4" stroke-linecap="round" opacity="0.8"/><line x1="478.2" y1="421.0" x2="396.8" y2="520.0" stroke="#d11414" stroke-width="1.4" stroke-linecap="round" opacity="0.8"/><line x1="484.2" y1="421.0" x2="404.5" y2="520.0" stroke="#d11414" stroke-width="1.4" stroke-linecap="round" opacity="0.8"/><line x1="490.3" y1="421.0" x2="412.2" y2="520.0" stroke="#d11414" stroke-width="1.4" stroke-linecap="round" opacity="0.8"/><line x1="496.4" y1="421.0" x2="419.9" y2="520.0" stroke="#d11414" stroke-width="1.4" stroke-linecap="round" opacity="0.8"/><line x1="502.4" y1="421.0" x2="427.6" y2="520.0" stroke="#d11414" stroke-width="1.4" stroke-linecap="round" opacity="0.8"/><line x1="508.4" y1="421.0" x2="435.3" y2="520.0" stroke="#d11414" stroke-width="1.4" stroke-linecap="round" opacity="0.8"/><line x1="514.5" y1="421.0" x2="443.0" y2="520.0" stroke="#d11414" stroke-width="1.4" stroke-linecap="round" opacity="0.8"/><line x1="432.0" y1="443.0" x2="459.5" y2="410.0" stroke="#d11414" stroke-width="2.0" stroke-linecap="round" opacity="0.9"/><line x1="344.0" y1="487.0" x2="388.0" y2="393.5" stroke="#d11414" stroke-width="2.4" stroke-linecap="round" opacity="0.7"/><line x1="300.0" y1="465.0" x2="432.0" y2="305.5" stroke="#d11414" stroke-width="2.4" stroke-linecap="round" opacity="0.5"/><line x1="542.0" y1="476.0" x2="316.5" y2="459.5" stroke="#d11414" stroke-width="2.0" stroke-linecap="round" opacity="0.6"/><line x1="432.0" y1="300.0" x2="509.0" y2="377.0" stroke="#2f6fd1" stroke-width="2.4" stroke-linecap="round" opacity="0.5"/><rect x="338.5" y="360.5" width="55.0" height="55.0" rx="2" fill="none" stroke="#39e0e0" stroke-width="1.4"/><rect x="344.6" y="413.7" width="3.6" height="3.6" rx="0.8" fill="#d11ad1"/><rect x="352.4" y="413.7" width="3.6" height="3.6" rx="0.8" fill="#d11ad1"/><rect x="360.3" y="413.7" width="3.6" height="3.6" rx="0.8" fill="#d11ad1"/><rect x="368.1" y="413.7" width="3.6" height="3.6" rx="0.8" fill="#d11ad1"/><rect x="376.0" y="413.7" width="3.6" height="3.6" rx="0.8" fill="#d11ad1"/><rect x="383.8" y="413.7" width="3.6" height="3.6" rx="0.8" fill="#d11ad1"/><rect x="391.7" y="366.6" width="3.6" height="3.6" rx="0.8" fill="#d11ad1"/><rect x="391.7" y="374.4" width="3.6" height="3.6" rx="0.8" fill="#d11ad1"/><rect x="391.7" y="382.3" width="3.6" height="3.6" rx="0.8" fill="#d11ad1"/><rect x="391.7" y="390.1" width="3.6" height="3.6" rx="0.8" fill="#d11ad1"/><rect x="391.7" y="398.0" width="3.6" height="3.6" rx="0.8" fill="#d11ad1"/><rect x="391.7" y="405.8" width="3.6" height="3.6" rx="0.8" fill="#d11ad1"/><rect x="344.6" y="358.7" width="3.6" height="3.6" rx="0.8" fill="#d11ad1"/><rect x="352.4" y="358.7" width="3.6" height="3.6" rx="0.8" fill="#d11ad1"/><rect x="360.3" y="358.7" width="3.6" height="3.6" rx="0.8" fill="#d11ad1"/><rect x="368.1" y="358.7" width="3.6" height="3.6" rx="0.8" fill="#d11ad1"/><rect x="376.0" y="358.7" width="3.6" height="3.6" rx="0.8" fill="#d11ad1"/><rect x="383.8" y="358.7" width="3.6" height="3.6" rx="0.8" fill="#d11ad1"/><rect x="336.7" y="366.6" width="3.6" height="3.6" rx="0.8" fill="#d11ad1"/><rect x="336.7" y="374.4" width="3.6" height="3.6" rx="0.8" fill="#d11ad1"/><rect x="336.7" y="382.3" width="3.6" height="3.6" rx="0.8" fill="#d11ad1"/><rect x="336.7" y="390.1" width="3.6" height="3.6" rx="0.8" fill="#d11ad1"/><rect x="336.7" y="398.0" width="3.6" height="3.6" rx="0.8" fill="#d11ad1"/><rect x="336.7" y="405.8" width="3.6" height="3.6" rx="0.8" fill="#d11ad1"/><text x="366.0" y="356.5" fill="#39e0e0" font-size="11" text-anchor="middle">U1 ATtiny3217</text><rect x="443.0" y="355.0" width="66.0" height="66.0" rx="2" fill="none" stroke="#39e0e0" stroke-width="1.4"/><rect x="446.7" y="419.2" width="3.6" height="3.6" rx="0.8" fill="#d11ad1"/><rect x="452.2" y="419.2" width="3.6" height="3.6" rx="0.8" fill="#d11ad1"/><rect x="457.7" y="419.2" width="3.6" height="3.6" rx="0.8" fill="#d11ad1"/><rect x="463.2" y="419.2" width="3.6" height="3.6" rx="0.8" fill="#d11ad1"/><rect x="468.7" y="419.2" width="3.6" height="3.6" rx="0.8" fill="#d11ad1"/><rect x="474.2" y="419.2" width="3.6" height="3.6" rx="0.8" fill="#d11ad1"/><rect x="479.7" y="419.2" width="3.6" height="3.6" rx="0.8" fill="#d11ad1"/><rect x="485.2" y="419.2" width="3.6" height="3.6" rx="0.8" fill="#d11ad1"/><rect x="490.7" y="419.2" width="3.6" height="3.6" rx="0.8" fill="#d11ad1"/><rect x="496.2" y="419.2" width="3.6" height="3.6" rx="0.8" fill="#d11ad1"/><rect x="501.7" y="419.2" width="3.6" height="3.6" rx="0.8" fill="#d11ad1"/><rect x="507.2" y="358.7" width="3.6" height="3.6" rx="0.8" fill="#d11ad1"/><rect x="507.2" y="364.2" width="3.6" height="3.6" rx="0.8" fill="#d11ad1"/><rect x="507.2" y="369.7" width="3.6" height="3.6" rx="0.8" fill="#d11ad1"/><rect x="507.2" y="375.2" width="3.6" height="3.6" rx="0.8" fill="#d11ad1"/><rect x="507.2" y="380.7" width="3.6" height="3.6" rx="0.8" fill="#d11ad1"/><rect x="507.2" y="386.2" width="3.6" height="3.6" rx="0.8" fill="#d11ad1"/><rect x="507.2" y="391.7" width="3.6" height="3.6" rx="0.8" fill="#d11ad1"/><rect x="507.2" y="397.2" width="3.6" height="3.6" rx="0.8" fill="#d11ad1"/><rect x="507.2" y="402.7" width="3.6" height="3.6" rx="0.8" fill="#d11ad1"/><rect x="507.2" y="408.2" width="3.6" height="3.6" rx="0.8" fill="#d11ad1"/><rect x="507.2" y="413.7" width="3.6" height="3.6" rx="0.8" fill="#d11ad1"/><rect x="446.7" y="353.2" width="3.6" height="3.6" rx="0.8" fill="#d11ad1"/><rect x="452.2" y="353.2" width="3.6" height="3.6" rx="0.8" fill="#d11ad1"/><rect x="457.7" y="353.2" width="3.6" height="3.6" rx="0.8" fill="#d11ad1"/><rect x="463.2" y="353.2" width="3.6" height="3.6" rx="0.8" fill="#d11ad1"/><rect x="468.7" y="353.2" width="3.6" height="3.6" rx="0.8" fill="#d11ad1"/><rect x="474.2" y="353.2" width="3.6" height="3.6" rx="0.8" fill="#d11ad1"/><rect x="479.7" y="353.2" width="3.6" height="3.6" rx="0.8" fill="#d11ad1"/><rect x="485.2" y="353.2" width="3.6" height="3.6" rx="0.8" fill="#d11ad1"/><rect x="490.7" y="353.2" width="3.6" height="3.6" rx="0.8" fill="#d11ad1"/><rect x="496.2" y="353.2" width="3.6" height="3.6" rx="0.8" fill="#d11ad1"/><rect x="501.7" y="353.2" width="3.6" height="3.6" rx="0.8" fill="#d11ad1"/><rect x="441.2" y="358.7" width="3.6" height="3.6" rx="0.8" fill="#d11ad1"/><rect x="441.2" y="364.2" width="3.6" height="3.6" rx="0.8" fill="#d11ad1"/><rect x="441.2" y="369.7" width="3.6" height="3.6" rx="0.8" fill="#d11ad1"/><rect x="441.2" y="375.2" width="3.6" height="3.6" rx="0.8" fill="#d11ad1"/><rect x="441.2" y="380.7" width="3.6" height="3.6" rx="0.8" fill="#d11ad1"/><rect x="441.2" y="386.2" width="3.6" height="3.6" rx="0.8" fill="#d11ad1"/><rect x="441.2" y="391.7" width="3.6" height="3.6" rx="0.8" fill="#d11ad1"/><rect x="441.2" y="397.2" width="3.6" height="3.6" rx="0.8" fill="#d11ad1"/><rect x="441.2" y="402.7" width="3.6" height="3.6" rx="0.8" fill="#d11ad1"/><rect x="441.2" y="408.2" width="3.6" height="3.6" rx="0.8" fill="#d11ad1"/><rect x="441.2" y="413.7" width="3.6" height="3.6" rx="0.8" fill="#d11ad1"/><text x="476.0" y="351.0" fill="#39e0e0" font-size="11" text-anchor="middle">U2 IS31FL3743A</text><rect x="294.5" y="305.5" width="33.0" height="33.0" rx="2" fill="none" stroke="#39e0e0" stroke-width="1.4"/><rect x="303.7" y="336.7" width="3.6" height="3.6" rx="0.8" fill="#d11ad1"/><rect x="314.7" y="336.7" width="3.6" height="3.6" rx="0.8" fill="#d11ad1"/><rect x="325.7" y="314.7" width="3.6" height="3.6" rx="0.8" fill="#d11ad1"/><rect x="325.7" y="325.7" width="3.6" height="3.6" rx="0.8" fill="#d11ad1"/><rect x="303.7" y="303.7" width="3.6" height="3.6" rx="0.8" fill="#d11ad1"/><rect x="314.7" y="303.7" width="3.6" height="3.6" rx="0.8" fill="#d11ad1"/><rect x="292.7" y="314.7" width="3.6" height="3.6" rx="0.8" fill="#d11ad1"/><rect x="292.7" y="325.7" width="3.6" height="3.6" rx="0.8" fill="#d11ad1"/><text x="311.0" y="301.5" fill="#39e0e0" font-size="11" text-anchor="middle">U3 RV-3028</text><rect x="278.0" y="377.0" width="22.0" height="22.0" rx="2" fill="none" stroke="#39e0e0" stroke-width="1.4"/><rect x="281.7" y="397.2" width="3.6" height="3.6" rx="0.8" fill="#d11ad1"/><rect x="287.2" y="397.2" width="3.6" height="3.6" rx="0.8" fill="#d11ad1"/><rect x="292.7" y="397.2" width="3.6" height="3.6" rx="0.8" fill="#d11ad1"/><rect x="298.2" y="380.7" width="3.6" height="3.6" rx="0.8" fill="#d11ad1"/><rect x="298.2" y="386.2" width="3.6" height="3.6" rx="0.8" fill="#d11ad1"/><rect x="298.2" y="391.7" width="3.6" height="3.6" rx="0.8" fill="#d11ad1"/><rect x="281.7" y="375.2" width="3.6" height="3.6" rx="0.8" fill="#d11ad1"/><rect x="287.2" y="375.2" width="3.6" height="3.6" rx="0.8" fill="#d11ad1"/><rect x="292.7" y="375.2" width="3.6" height="3.6" rx="0.8" fill="#d11ad1"/><rect x="276.2" y="380.7" width="3.6" height="3.6" rx="0.8" fill="#d11ad1"/><rect x="276.2" y="386.2" width="3.6" height="3.6" rx="0.8" fill="#d11ad1"/><rect x="276.2" y="391.7" width="3.6" height="3.6" rx="0.8" fill="#d11ad1"/><text x="289.0" y="373.0" fill="#39e0e0" font-size="11" text-anchor="middle">U4 LIS2DH12</text><rect x="283.5" y="451.2" width="33.0" height="27.5" rx="2" fill="none" stroke="#39e0e0" stroke-width="1.4"/><rect x="292.7" y="476.9" width="3.6" height="3.6" rx="0.8" fill="#d11ad1"/><rect x="303.7" y="476.9" width="3.6" height="3.6" rx="0.8" fill="#d11ad1"/><rect x="314.7" y="463.2" width="3.6" height="3.6" rx="0.8" fill="#d11ad1"/><rect x="298.2" y="449.4" width="3.6" height="3.6" rx="0.8" fill="#d11ad1"/><rect x="281.7" y="463.2" width="3.6" height="3.6" rx="0.8" fill="#d11ad1"/><text x="300.0" y="447.2" fill="#39e0e0" font-size="11" text-anchor="middle">U5 MCP73831</text><rect x="333.0" y="478.2" width="22.0" height="17.6" rx="2" fill="none" stroke="#39e0e0" stroke-width="1.4"/><rect x="338.5" y="494.0" width="3.6" height="3.6" rx="0.8" fill="#d11ad1"/><rect x="345.9" y="494.0" width="3.6" height="3.6" rx="0.8" fill="#d11ad1"/><rect x="353.2" y="485.2" width="3.6" height="3.6" rx="0.8" fill="#d11ad1"/><rect x="342.2" y="476.4" width="3.6" height="3.6" rx="0.8" fill="#d11ad1"/><rect x="331.2" y="485.2" width="3.6" height="3.6" rx="0.8" fill="#d11ad1"/><text x="344.0" y="474.2" fill="#39e0e0" font-size="11" text-anchor="middle">U6 LDO</text><rect x="424.3" y="439.1" width="15.4" height="7.7" rx="2" fill="none" stroke="#39e0e0" stroke-width="1.4"/><rect x="422.3" y="441.0" width="4" height="4" rx="1" fill="#d11ad1"/><rect x="437.7" y="441.0" width="4" height="4" rx="1" fill="#d11ad1"/><text x="432.0" y="435.1" fill="#39e0e0" font-size="11" text-anchor="middle">R1 R_EXT</text><rect x="355.0" y="518.9" width="110.0" height="24.2" rx="2" fill="none" stroke="#39e0e0" stroke-width="1.4"/><rect x="366.4" y="528.6" width="4.8" height="4.8" rx="0.8" fill="#d11ad1"/><rect x="393.9" y="528.6" width="4.8" height="4.8" rx="0.8" fill="#d11ad1"/><rect x="421.4" y="528.6" width="4.8" height="4.8" rx="0.8" fill="#d11ad1"/><rect x="448.9" y="528.6" width="4.8" height="4.8" rx="0.8" fill="#d11ad1"/><text x="410.0" y="514.9" fill="#39e0e0" font-size="11" text-anchor="middle">J1 B2B → dial</text><rect x="360.5" y="283.5" width="143.0" height="33.0" rx="2" fill="none" stroke="#39e0e0" stroke-width="1.4"/><circle cx="384.3" cy="300.0" r="4" fill="#d11ad1"/><circle cx="479.7" cy="300.0" r="4" fill="#d11ad1"/><text x="432.0" y="279.5" fill="#39e0e0" font-size="11" text-anchor="middle">BT1 LiPo +/−</text><rect x="528.8" y="462.8" width="26.4" height="26.4" rx="2" fill="none" stroke="#39e0e0" stroke-width="1.4"/><circle cx="542.0" cy="476.0" r="13.2" fill="#caa72a" stroke="#eedd88" stroke-width="1"/><text x="542.0" y="458.8" fill="#39e0e0" font-size="11" text-anchor="middle">CP+ V+</text><rect x="528.8" y="495.8" width="26.4" height="26.4" rx="2" fill="none" stroke="#39e0e0" stroke-width="1.4"/><circle cx="542.0" cy="509.0" r="13.2" fill="#caa72a" stroke="#eedd88" stroke-width="1"/><text x="542.0" y="491.8" fill="#39e0e0" font-size="11" text-anchor="middle">CP- GND</text><circle cx="522.8" cy="297.2" r="7" fill="#0b0d0a" stroke="#39e0e0" stroke-width="1.2"/><circle cx="522.8" cy="297.2" r="3" fill="#222" stroke="#777" stroke-width="0.6"/><circle cx="297.2" cy="297.2" r="7" fill="#0b0d0a" stroke="#39e0e0" stroke-width="1.2"/><circle cx="297.2" cy="297.2" r="3" fill="#222" stroke="#777" stroke-width="0.6"/><circle cx="297.2" cy="522.8" r="7" fill="#0b0d0a" stroke="#39e0e0" stroke-width="1.2"/><circle cx="297.2" cy="522.8" r="3" fill="#222" stroke="#777" stroke-width="0.6"/><circle cx="522.8" cy="522.8" r="7" fill="#0b0d0a" stroke="#39e0e0" stroke-width="1.2"/><circle cx="522.8" cy="522.8" r="3" fill="#222" stroke="#777" stroke-width="0.6"/><rect x="14" y="12" width="14" height="6" fill="#d11414"/><text x="34" y="18" fill="#ccc" font-size="12">top copper (matrix + power)</text><rect x="14" y="30" width="14" height="6" fill="#2f6fd1"/><text x="34" y="36" fill="#ccc" font-size="12">bottom copper (I²C bus)</text><text x="410" y="806" fill="#9a9a9a" font-size="12" text-anchor="middle">Controller ~31mm — ATtiny3217 + IS31FL3743A driver · matrix on I²C · representative 2-layer routing</text></svg>